# xmcd
#
# Track frame offsets: 
#        150
#        12600
#        25183
#        38966
#        52417
#        67686
#        79717
#        94437
#        107405
#        120126
#        133052
#        146891
#        159221
#        172375
#        185316
#        198319
#        210219
#        224091
#        237979
#        251979
#        266477
#        281008
#
# Disc length: 3920 seconds
#
# Revision: 0
# Processed by: cddbd v1.5.2PL0 Copyright (c) Steve Scherf et al.
# Submitted via: ExactAudioCopy v0.99pb4
#
DISCID=490f4e16
DTITLE=Victoria Spivey - Complete Recordings Vol. 4: 1936-1937
DYEAR=1995
DGENRE=Blues
TTITLE0=Dreaming of You [take 1]
TTITLE1=Dreaming of You [take 2]
TTITLE2=I Can't Last Long
TTITLE3=Mr. Freddie Blues [take 1]
TTITLE4=Mr. Freddie Blues [take 2]
TTITLE5=Trouble in Mind
TTITLE6=Hollywood Stomp
TTITLE7=Detroit Moan
TTITLE8=Any-Kind-a-Man [take 1]
TTITLE9=Any-Kind-a-Man [take 2]
TTITLE10=I Ain't Gonna Let You See My Santa Claus
TTITLE11=One Hour Mama
TTITLE12=Harlem Susie-Kue
TTITLE13=Give It to Him [take 1]
TTITLE14=Give It to Him [take 2]
TTITLE15=Got the Blues So Bad
TTITLE16=Down Hill Pull
TTITLE17=From 1 to 12 (Dirty Dozen)
TTITLE18=Good Cabbage
TTITLE19=Time Ain't Long [take 1]
TTITLE20=Time Ain't Long [take 2]
TTITLE21=Don't Love No Married Man
EXTD=
EXTT0=
EXTT1=
EXTT2=
EXTT3=
EXTT4=
EXTT5=
EXTT6=
EXTT7=
EXTT8=
EXTT9=
EXTT10=
EXTT11=
EXTT12=
EXTT13=
EXTT14=
EXTT15=
EXTT16=
EXTT17=
EXTT18=
EXTT19=
EXTT20=
EXTT21=
PLAYORDER=
